<svg width="32" height="32" viewBox="0 0 32 32" fill="none" xmlns="http://www.w3.org/2000/svg">
<path fill-rule="evenodd" clip-rule="evenodd" d="M30.8558 9.37293C30.8542 9.07414 30.8508 8.77534 30.8426 8.47654C30.8253 7.8253 30.7865 7.1691 30.6709 6.52529C30.5537 5.87157 30.3614 5.26324 30.0593 4.66895C29.7621 4.08539 29.3742 3.55218 28.9111 3.08913C28.4481 2.62607 27.9141 2.23813 27.3305 1.94099C26.737 1.63889 26.1287 1.4474 25.4758 1.32936C24.832 1.21381 24.175 1.17501 23.5237 1.15768C23.2249 1.14943 22.9261 1.14612 22.6273 1.14447C22.2724 1.14282 21.9175 1.14282 21.5626 1.14282H10.4378C10.0828 1.14282 9.72792 1.14282 9.37299 1.14447C9.0742 1.14612 8.7754 1.14943 8.4766 1.15768C7.82536 1.17584 7.16834 1.21381 6.52452 1.33019C5.8708 1.4474 5.2633 1.63972 4.66984 1.94181C4.08628 2.23896 3.55224 2.6269 3.08919 3.08995C2.62614 3.553 2.2382 4.08622 1.94105 4.66978C1.63895 5.26407 1.44663 5.87239 1.32942 6.52611C1.21387 7.16993 1.17507 7.82695 1.15774 8.47737C1.14949 8.77616 1.14618 9.07496 1.14453 9.37376C1.14288 9.72786 1.14288 10.0828 1.14288 10.4377V21.5617C1.14288 21.9166 1.14288 22.2715 1.14453 22.6265C1.14618 22.9253 1.14949 23.224 1.15774 23.5228C1.17507 24.1741 1.21387 24.8303 1.32942 25.4741C1.44663 26.1278 1.63895 26.7361 1.94105 27.3304C2.2382 27.914 2.62614 28.4472 3.08919 28.9103C3.55224 29.3733 4.08628 29.7613 4.66984 30.0584C5.2633 30.3605 5.87163 30.552 6.52452 30.67C7.16834 30.7856 7.82536 30.8244 8.4766 30.8417C8.7754 30.85 9.0742 30.8533 9.37299 30.8549C9.72792 30.8574 10.0828 30.8566 10.4378 30.8566H21.5617C21.9167 30.8566 22.2716 30.8566 22.6265 30.8549C22.9253 30.8533 23.2241 30.85 23.5229 30.8417C24.1742 30.8244 24.8312 30.7856 25.475 30.67C26.1287 30.5528 26.7362 30.3613 27.3297 30.0584C27.9132 29.7613 28.4473 29.3733 28.9103 28.9103C29.3734 28.4472 29.7613 27.914 30.0585 27.3304C30.3606 26.7361 30.5529 26.1278 30.6701 25.4741C30.7856 24.8303 30.8244 24.1733 30.8418 23.5228C30.85 23.224 30.8533 22.9253 30.855 22.6265C30.8575 22.2715 30.8566 21.9166 30.8566 21.5617V10.4377C30.8575 10.0828 30.8575 9.72786 30.8558 9.37293ZM22.8956 20.4788C22.8956 20.8551 22.8923 21.1969 22.8131 21.5732C22.7363 21.9389 22.596 22.2831 22.3805 22.5926C22.1651 22.9013 21.8894 23.1547 21.5675 23.3446C21.2415 23.5369 20.9006 23.6467 20.5358 23.7201C19.8507 23.858 19.3827 23.8893 18.9419 23.801C18.5177 23.716 18.1578 23.5204 17.8697 23.2562C17.443 22.865 17.1772 22.3367 17.1194 21.7854C17.0517 21.1383 17.2672 20.4474 17.7525 19.9381C17.9976 19.6814 18.3055 19.4784 18.7166 19.3182C19.1466 19.1515 19.6212 19.0516 20.3509 18.9047C20.5432 18.8659 20.7355 18.8271 20.9278 18.7883C21.1804 18.7371 21.3975 18.6728 21.5725 18.459C21.7483 18.2436 21.7516 17.9819 21.7516 17.7227V11.1781C21.7516 10.6771 21.5271 10.5409 21.0483 10.6325C20.7066 10.6994 13.3647 12.1801 13.3647 12.1801C12.9503 12.28 12.805 12.4154 12.805 12.9296V22.5167C12.805 22.8931 12.7852 23.2348 12.7068 23.6112C12.63 23.9768 12.4897 24.321 12.2743 24.6305C12.0589 24.9392 11.7832 25.1926 11.4613 25.3825C11.1352 25.5748 10.7943 25.6895 10.4295 25.763C9.74443 25.9008 9.27642 25.9322 8.83565 25.8439C8.4114 25.7589 8.05152 25.5575 7.76345 25.2942C7.33672 24.9029 7.0891 24.3747 7.0305 23.8233C6.96281 23.1762 7.16008 22.4853 7.64625 21.976C7.89139 21.7193 8.19927 21.5163 8.61032 21.3562C9.04036 21.1894 9.51496 21.0896 10.2446 20.9426C10.4369 20.9038 10.6293 20.865 10.8216 20.8262C11.0742 20.7751 11.2912 20.7107 11.4662 20.4969C11.6412 20.2831 11.6618 20.0314 11.6618 19.7739C11.6618 17.7434 11.6618 8.72004 11.6618 8.72004C11.6618 8.57146 11.6742 8.47077 11.6817 8.42124C11.7171 8.18848 11.8104 7.98873 11.9788 7.84758C12.1191 7.73038 12.2991 7.64866 12.5293 7.59996L12.5326 7.59914L21.3645 5.81709C21.4412 5.80141 22.0793 5.68833 22.1511 5.68172C22.6282 5.64045 22.8964 5.95411 22.8964 6.46255V20.4788H22.8956Z" fill="#F3DAC3" style="fill:#F3DAC3;fill:color(display-p3 0.9529 0.8549 0.7647);fill-opacity:1;"/>
</svg>
