<svg width="32" height="32" viewBox="0 0 32 32" fill="none" xmlns="http://www.w3.org/2000/svg">
<path d="M29.7137 16C29.7137 8.42757 23.5749 2.28882 16.0025 2.28882C8.43014 2.28882 2.29138 8.42757 2.29138 16C2.29138 22.43 6.71844 27.8256 12.6905 29.3075V20.1901H9.86323V16H12.6905V14.1945C12.6905 9.52776 14.8025 7.36469 19.3843 7.36469C20.253 7.36469 21.7519 7.53525 22.3651 7.70527V11.5033C22.0415 11.4693 21.4793 11.4523 20.7811 11.4523C18.5331 11.4523 17.6643 12.304 17.6643 14.5181V16H22.1429L21.3735 20.1901H17.6643V29.6108C24.4535 28.7908 29.7142 23.0102 29.7142 16H29.7137Z" fill="#F3DAC3" style="fill:#F3DAC3;fill:color(display-p3 0.9529 0.8549 0.7647);fill-opacity:1;"/>
</svg>
