<svg width="32" height="32" viewBox="0 0 32 32" fill="none" xmlns="http://www.w3.org/2000/svg">
<g clip-path="url(#clip0_7_261)">
<path d="M10.5567 2.94934C9.15829 3.01532 8.20333 3.23848 7.36849 3.56653C6.50448 3.90325 5.77216 4.3551 5.04352 5.08637C4.31488 5.81764 3.86619 6.55048 3.53183 7.41581C3.20825 8.25248 2.98903 9.20823 2.92726 10.6074C2.86549 12.0066 2.85182 12.4564 2.85865 16.0254C2.86549 19.5945 2.88126 20.0419 2.94908 21.444C3.01584 22.8421 3.23822 23.7968 3.56627 24.6319C3.90351 25.4959 4.35484 26.228 5.08637 26.9569C5.8179 27.6858 6.55022 28.1334 7.41765 28.4683C8.25353 28.7914 9.20955 29.0116 10.6085 29.0729C12.0074 29.1341 12.4577 29.1483 16.0257 29.1415C19.5937 29.1346 20.0429 29.1189 21.4448 29.0524C22.8466 28.9859 23.7963 28.7619 24.6316 28.4354C25.4956 28.0974 26.2282 27.6469 26.9566 26.9151C27.685 26.1833 28.1334 25.4499 28.4675 24.5841C28.7914 23.7482 29.0114 22.7922 29.0721 21.3943C29.1333 19.9914 29.1478 19.5435 29.141 15.975C29.1341 12.4064 29.1181 11.959 29.0516 10.5575C28.9851 9.15592 28.7624 8.20412 28.4347 7.36849C28.0969 6.50448 27.6461 5.77295 26.9148 5.04352C26.1835 4.31409 25.4496 3.86592 24.5841 3.53262C23.7476 3.20904 22.7922 2.98851 21.3932 2.92805C19.9943 2.86759 19.544 2.85208 15.9747 2.85892C12.4054 2.86575 11.9585 2.881 10.5567 2.94934ZM10.7102 26.7085C9.42877 26.6528 8.73299 26.4398 8.26931 26.2616C7.65527 26.025 7.21788 25.7391 6.75577 25.2814C6.29367 24.8238 6.00979 24.3848 5.77006 23.7721C5.59 23.3084 5.37315 22.6134 5.31321 21.332C5.24803 19.947 5.23436 19.5312 5.22673 16.0223C5.21911 12.5134 5.23252 12.0981 5.29324 10.7126C5.34791 9.43219 5.56214 8.73562 5.74009 8.2722C5.97667 7.65738 6.2616 7.22077 6.72029 6.75893C7.17897 6.29709 7.61663 6.01268 8.22988 5.77295C8.69303 5.59211 9.38803 5.37709 10.6689 5.31611C12.055 5.25039 12.4703 5.23725 15.9786 5.22963C19.487 5.222 19.9034 5.23515 21.2899 5.29613C22.5703 5.35185 23.2671 5.56398 23.73 5.74299C24.3443 5.97956 24.7815 6.26371 25.2433 6.72318C25.7051 7.18266 25.9898 7.61874 26.2295 8.2333C26.4107 8.69514 26.6257 9.38987 26.6861 10.6716C26.7521 12.0576 26.7671 12.4732 26.7734 15.9813C26.7797 19.4894 26.7674 19.906 26.7066 21.291C26.6506 22.5724 26.4383 23.2685 26.2598 23.7327C26.0232 24.3464 25.738 24.7841 25.2791 25.2457C24.8201 25.7073 24.383 25.9917 23.7695 26.2314C23.3068 26.412 22.6111 26.6275 21.3312 26.6885C19.9452 26.7537 19.5298 26.7674 16.0202 26.775C12.5105 26.7826 12.0965 26.7684 10.7105 26.7085M21.4245 8.97587C21.425 9.28782 21.5181 9.59261 21.6918 9.85169C21.8656 10.1108 22.1123 10.3125 22.4007 10.4314C22.6891 10.5503 23.0063 10.5809 23.3121 10.5195C23.618 10.4581 23.8987 10.3074 24.1189 10.0864C24.3391 9.86541 24.4888 9.58409 24.5491 9.27802C24.6094 8.97195 24.5775 8.65487 24.4576 8.3669C24.3377 8.07892 24.135 7.83298 23.8753 7.66018C23.6156 7.48737 23.3105 7.39547 22.9985 7.3961C22.5803 7.39693 22.1796 7.56382 21.8844 7.86007C21.5892 8.15632 21.4238 8.55767 21.4245 8.97587ZM9.2516 16.0133C9.25896 19.7407 12.286 22.7554 16.0126 22.7483C19.7391 22.7412 22.7559 19.7144 22.7488 15.9871C22.7417 12.2597 19.7138 9.24424 15.9868 9.2516C12.2597 9.25896 9.24451 12.2866 9.2516 16.0133ZM11.6189 16.0086C11.6172 15.1421 11.8724 14.2946 12.3524 13.5732C12.8324 12.8518 13.5155 12.2889 14.3154 11.9557C15.1152 11.6225 15.9959 11.534 16.8461 11.7014C17.6963 11.8688 18.4777 12.2845 19.0916 12.896C19.7056 13.5074 20.1244 14.2872 20.2951 15.1367C20.4658 15.9862 20.3808 16.8673 20.0508 17.6685C19.7208 18.4697 19.1606 19.155 18.4411 19.6378C17.7216 20.1206 16.8751 20.3793 16.0086 20.381C15.4333 20.3822 14.8633 20.27 14.3313 20.051C13.7993 19.8319 13.3157 19.5101 12.908 19.1041C12.5004 18.6981 12.1768 18.2157 11.9556 17.6846C11.7344 17.1535 11.62 16.584 11.6189 16.0086Z" fill="#F3DAC3" style="fill:#F3DAC3;fill:color(display-p3 0.9529 0.8549 0.7647);fill-opacity:1;"/>
</g>
<defs>
<clipPath id="clip0_7_261">
<rect width="26.2857" height="26.2857" fill="white" style="fill:white;fill-opacity:1;" transform="translate(2.85712 2.85718)"/>
</clipPath>
</defs>
</svg>
