<svg width="40" height="40" viewBox="0 0 40 40" fill="none" xmlns="http://www.w3.org/2000/svg">
<g clip-path="url(#clip0_11_441)">
<path d="M20 3.33325C16.7037 3.33325 13.4814 4.31073 10.7405 6.14209C7.99972 7.97345 5.86352 10.5764 4.60206 13.6219C3.3406 16.6673 3.01054 20.0184 3.65363 23.2514C4.29671 26.4844 5.88406 29.4542 8.21494 31.785C10.5458 34.1159 13.5155 35.7033 16.7485 36.3463C19.9816 36.9894 23.3327 36.6594 26.3781 35.3979C29.4235 34.1365 32.0265 32.0002 33.8579 29.2594C35.6892 26.5186 36.6667 23.2963 36.6667 19.9999C36.6667 17.8112 36.2356 15.644 35.398 13.6219C34.5605 11.5998 33.3328 9.76245 31.7852 8.21481C30.2375 6.66716 28.4002 5.4395 26.3781 4.60193C24.356 3.76435 22.1887 3.33325 20 3.33325ZM16.6667 27.4999V12.4999L26.6667 19.9999L16.6667 27.4999Z" fill="#F3DAC3" style="fill:#F3DAC3;fill:color(display-p3 0.9529 0.8549 0.7647);fill-opacity:1;"/>
</g>
<defs>
<clipPath id="clip0_11_441">
<rect width="40" height="40" fill="white" style="fill:white;fill-opacity:1;"/>
</clipPath>
</defs>
</svg>
