<svg width="32" height="32" viewBox="0 0 32 32" fill="none" xmlns="http://www.w3.org/2000/svg">
<path d="M29.6225 21.9417C29.4496 21.5015 29.103 21.1186 28.6603 20.9272C28.5825 20.889 28.5057 20.8507 28.4481 20.8124C28.3328 20.755 28.1975 20.6975 28.063 20.6211C26.8693 20.0277 25.8485 19.1473 25.0591 18.0755C24.8662 17.7884 24.6933 17.4822 24.5387 17.1759C24.4811 17.0611 24.4811 16.9271 24.5195 16.8123C24.5579 16.7357 24.6164 16.6784 24.6933 16.64C24.9046 16.4869 25.136 16.353 25.2897 16.2382C25.5595 16.0659 25.7909 15.9128 25.9254 15.8171C26.3873 15.5108 26.7724 15.1089 27.0614 14.6304C27.3889 14.0179 27.4273 13.2907 27.1775 12.64C26.8117 11.7213 25.9062 11.1088 24.9046 11.1471C24.6933 11.1471 24.4619 11.1662 24.2506 11.2236L24.0768 11.2619C24.096 10.6112 24.0768 9.96045 24.0192 9.32887C23.9423 7.68287 23.2874 6.09432 22.1706 4.88852C21.6309 4.29527 20.9961 3.7785 20.2836 3.37654C17.6063 1.92201 14.3519 1.92201 11.6755 3.37654C10.963 3.7785 10.3273 4.27606 9.78852 4.88852C8.7101 6.11344 8.05519 7.68287 7.97835 9.32887C7.91985 9.97957 7.90063 10.6304 7.91985 11.2619L7.74696 11.2236C7.53476 11.1662 7.30424 11.1471 7.09205 11.1471C6.09048 11.1088 5.18584 11.7021 4.81997 12.64C4.56936 13.2907 4.60777 14.0179 4.93523 14.6304C5.20504 15.1089 5.59013 15.53 6.07127 15.8171C6.20662 15.9128 6.43715 16.0467 6.70697 16.2382C6.86065 16.3339 7.07283 16.4678 7.28503 16.6209C7.36187 16.6784 7.41951 16.7357 7.47713 16.8123C7.53476 16.9271 7.51556 17.0611 7.45792 17.1759C7.32344 17.4822 7.14968 17.7884 6.95758 18.0563C6.16819 19.1282 5.16663 19.9703 4.01138 20.5636C3.35647 20.9272 2.66314 21.1377 2.37411 21.9225C2.16192 22.5732 2.33569 23.3005 2.85525 23.7598C3.06744 23.9704 3.29884 24.1427 3.54857 24.2957C4.08822 24.5829 4.66541 24.8125 5.26268 24.9847C5.37795 25.0231 5.51329 25.0613 5.60934 25.1379C5.80233 25.3101 5.78224 25.5781 6.05206 25.9608C6.1874 26.1523 6.36031 26.3437 6.55328 26.4776C7.13047 26.803 7.78537 26.9561 8.44028 26.9178C9.15282 26.9178 9.84614 27.0135 10.5203 27.2241C10.8861 27.3772 11.252 27.5494 11.5786 27.7791C14.2366 29.5974 17.7417 29.5974 20.3988 27.7791C20.7263 27.5686 21.073 27.3772 21.4388 27.2241C22.1129 27.0135 22.8255 26.9178 23.5179 26.9178C24.1728 26.9561 24.8278 26.803 25.4058 26.4776C25.6363 26.3054 25.8485 26.0949 25.983 25.846C26.176 25.5206 26.176 25.291 26.3489 25.1379C26.4458 25.0804 26.5611 25.0231 26.6763 24.9847C27.2928 24.8316 27.8709 24.602 28.4096 24.2957C28.6795 24.1427 28.9292 23.9512 29.1414 23.7407C29.681 23.2623 29.8347 22.5732 29.6225 21.9417ZM27.6971 22.956C26.5226 23.6068 25.7525 23.5302 25.136 23.913C24.6164 24.2384 24.9238 24.9465 24.5579 25.2145C24.096 25.5206 22.7286 25.1953 20.976 25.7695C19.5318 26.248 18.6079 27.6068 15.9891 27.6068C13.3695 27.6068 12.4841 26.248 11.0014 25.7695C9.24887 25.1953 7.88143 25.5399 7.41951 25.2145C7.05363 24.9656 7.34266 24.2384 6.84144 23.913C6.24504 23.5302 5.45565 23.5876 4.28032 22.956C3.52937 22.5541 3.95287 22.2862 4.20348 22.1713C8.45949 20.1234 9.13361 16.9654 9.17203 16.7357C9.26808 16.4487 9.17203 16.1233 8.94063 15.9319C8.63238 15.6639 7.28503 14.841 6.89994 14.573C6.28346 14.152 6.01363 13.7118 6.20662 13.195C6.34109 12.8696 6.68776 12.6591 7.05363 12.6973C7.1689 12.6973 7.28503 12.7165 7.40029 12.7357C8.07441 12.8887 8.72932 13.2141 9.11439 13.3098C9.15282 13.3289 9.21044 13.3289 9.24887 13.3289C9.46106 13.3289 9.51869 13.2332 9.51869 13.0036C9.42264 11.8361 9.42264 10.6495 9.48027 9.48201C9.51869 8.1614 10.0575 6.87903 10.963 5.90294C13.7162 3.14684 18.2036 3.12772 20.976 5.86461L21.0153 5.90294C21.92 6.87903 22.4404 8.14219 22.498 9.48201C22.5749 10.6495 22.5557 11.8361 22.4596 13.0036C22.4404 13.2524 22.5172 13.3289 22.7286 13.3289C22.7862 13.3289 22.8255 13.3289 22.8639 13.3098C23.249 13.2141 23.9039 12.8887 24.5771 12.7357C24.6933 12.7165 24.8085 12.6973 24.9046 12.6973C25.2705 12.6591 25.5979 12.8696 25.7525 13.195C25.9446 13.7309 25.6748 14.152 25.0591 14.573C24.6933 14.8218 23.345 15.6639 23.0368 15.9319C22.8063 16.1233 22.7094 16.4295 22.8063 16.7357C22.8447 16.9654 23.5179 20.1234 27.774 22.1713C28.0246 22.3053 28.4481 22.5541 27.6971 22.956Z" fill="#F3DAC3" style="fill:#F3DAC3;fill:color(display-p3 0.9529 0.8549 0.7647);fill-opacity:1;"/>
</svg>
