<svg width="32" height="32" viewBox="0 0 32 32" fill="none" xmlns="http://www.w3.org/2000/svg">
<g clip-path="url(#clip0_5_35)">
<path d="M25.1045 14.2903C20.1312 11.3367 11.9279 11.0652 7.18028 12.5061C6.41768 12.7374 5.61155 12.3072 5.38066 11.5447C5.14963 10.7818 5.5795 9.97612 6.34237 9.74439C11.7925 8.09014 20.8521 8.4096 26.5774 11.8082C27.2633 12.2154 27.488 13.101 27.0816 13.7855C26.6748 14.4713 25.7884 14.6975 25.1043 14.2903M24.9416 18.6647C24.5927 19.2309 23.8523 19.4085 23.2869 19.0608C19.1409 16.5123 12.8183 15.7739 7.91303 17.2629C7.277 17.4549 6.60505 17.0965 6.41188 16.4615C6.31979 16.1562 6.35251 15.8268 6.50287 15.5456C6.65323 15.2644 6.90896 15.0543 7.21399 14.9614C12.8175 13.2609 19.7837 14.0844 24.5458 17.011C25.1112 17.3592 25.2892 18.0998 24.9416 18.6647ZM23.0536 22.8658C22.9879 22.9738 22.9016 23.0677 22.7995 23.1422C22.6975 23.2167 22.5817 23.2704 22.4589 23.3001C22.3361 23.3298 22.2086 23.335 22.0838 23.3154C21.959 23.2958 21.8392 23.2518 21.7314 23.1858C18.1084 20.9716 13.5482 20.4715 8.17764 21.6982C8.05458 21.7264 7.92719 21.73 7.80273 21.7089C7.67828 21.6878 7.5592 21.6424 7.4523 21.5752C7.3454 21.5081 7.25277 21.4206 7.17971 21.3176C7.10665 21.2147 7.05458 21.0984 7.02649 20.9753C6.99819 20.8522 6.99446 20.7247 7.0155 20.6002C7.03655 20.4756 7.08195 20.3565 7.14912 20.2495C7.21629 20.1425 7.3039 20.0499 7.40693 19.9768C7.50996 19.9037 7.6264 19.8517 7.74957 19.8237C13.6267 18.4804 18.6679 19.0585 22.7346 21.5435C22.8424 21.6093 22.9362 21.6958 23.0106 21.7979C23.0849 21.9 23.1385 22.0157 23.1681 22.1385C23.1978 22.2613 23.2029 22.3888 23.1833 22.5135C23.1637 22.6383 23.1195 22.758 23.0536 22.8658ZM15.9777 0.612549C7.45718 0.612549 0.549438 7.52002 0.549438 16.0408C0.549438 24.5625 7.45718 31.4697 15.9779 31.4697C24.499 31.4697 31.4066 24.5625 31.4066 16.0408C31.4066 7.52016 24.499 0.612549 15.9777 0.612549Z" fill="#F3DAC3" style="fill:#F3DAC3;fill:color(display-p3 0.9529 0.8549 0.7647);fill-opacity:1;"/>
</g>
<defs>
<clipPath id="clip0_5_35">
<rect width="32" height="32" fill="white" style="fill:white;fill-opacity:1;"/>
</clipPath>
</defs>
</svg>
