<svg width="32" height="32" viewBox="0 0 32 32" fill="none" xmlns="http://www.w3.org/2000/svg">
<path fill-rule="evenodd" clip-rule="evenodd" d="M18.065 4.00402H21.529C21.8628 5.72576 22.9328 7.20314 24.4152 8.12618C24.4157 8.12677 24.4163 8.12736 24.4167 8.12795C25.4486 8.77026 26.679 9.145 27.9998 9.145V10.151L28 13.6633C25.5465 13.6633 23.273 12.9137 21.4173 11.6415V20.8251C21.4173 25.4116 17.5107 29.1429 12.7085 29.1429C10.853 29.1429 9.1322 28.584 7.71774 27.6354C7.71699 27.6346 7.71623 27.6337 7.71532 27.633C5.47088 26.1269 4 23.6374 4 20.8242C4 16.2379 7.90667 12.5064 12.7088 12.5064C13.1072 12.5064 13.4978 12.5378 13.8823 12.5876V13.6582L13.8822 17.2019C13.5107 17.0909 13.118 17.0263 12.7085 17.0263C10.5155 17.0263 8.73136 18.7305 8.73136 20.8251C8.73136 22.2837 9.59779 23.551 10.8637 24.1873C11.4157 24.4648 12.0427 24.6238 12.7084 24.6238C14.8509 24.6238 16.5985 22.9961 16.6781 20.9681L16.6857 2.85718H21.4172C21.4172 3.24892 21.4568 3.63179 21.529 4.00402H18.065Z" fill="#F3DAC3" style="fill:#F3DAC3;fill:color(display-p3 0.9529 0.8549 0.7647);fill-opacity:1;"/>
</svg>
