<svg width="40" height="40" viewBox="0 0 40 40" fill="none" xmlns="http://www.w3.org/2000/svg">
<path d="M39.1637 10.0646C38.7027 8.35135 37.3494 7.00501 35.6273 6.5464C32.5091 5.71436 20 5.71436 20 5.71436C20 5.71436 7.49095 5.71436 4.37274 6.5464C2.65064 7.00501 1.29733 8.35135 0.836352 10.0646C3.14019e-07 13.1667 0 19.6429 0 19.6429C0 19.6429 3.14019e-07 26.1191 0.836352 29.2213C1.29733 30.9345 2.65064 32.2808 4.37274 32.7395C7.49095 33.5715 20 33.5715 20 33.5715C20 33.5715 32.5091 33.5715 35.6273 32.7395C37.3494 32.2808 38.7027 30.9345 39.1637 29.2213C40 26.1191 40 19.6429 40 19.6429C40 19.6429 40 13.1667 39.1637 10.0646ZM15.9961 25.6114V13.6712L26.3879 19.6397L15.9961 25.6081V25.6114Z" fill="#F3DAC3" style="fill:#F3DAC3;fill:color(display-p3 0.9529 0.8549 0.7647);fill-opacity:1;"/>
</svg>
