<svg width="160" height="160" viewBox="0 0 160 160" fill="none" xmlns="http://www.w3.org/2000/svg">
<rect width="160" height="160" fill="black"/>
<path fill-rule="evenodd" clip-rule="evenodd" d="M87.2998 123.633C79.0962 123.633 71.0416 120.65 66.4177 114.236L64.7868 121.8L34.6758 137.797L37.9264 121.8L59.8548 22.3545H86.7032L78.947 57.4066C85.2116 50.5453 91.0288 48.0097 98.4867 48.0097C114.596 48.0097 125.335 58.5999 125.335 77.9904C125.335 97.9775 112.955 123.633 87.2998 123.633ZM97.5917 83.6584C97.5917 92.9062 91.0288 99.9166 82.5268 99.9166C77.7537 99.9166 73.4281 98.1267 70.5941 94.9944L74.7706 76.648C77.9029 73.5157 81.4827 71.7258 85.6591 71.7258C92.0729 71.7258 97.5917 76.4988 97.5917 83.6584Z" fill="white"/>
</svg>
