<svg width="292" height="42" viewBox="0 0 292 42" fill="none" xmlns="http://www.w3.org/2000/svg">
<path d="M224.665 0C228.416 0 229.282 1.73016 230.494 1.73047C231.187 1.73047 231.649 1.38455 231.88 0.807617H233.265V12.4619H232.341C231.187 12.4616 231.129 11.1339 230.206 7.78809C229.398 4.84595 228.186 2.30769 224.896 2.30762C222.069 2.30762 219.76 4.61528 219.76 8.48047C219.76 18.692 235.688 15.0579 235.688 29.25C235.688 36.577 230.379 42 225.185 42C222.011 41.9999 219.125 40.2698 218.375 40.2695C217.856 40.2695 217.509 40.7309 217.336 41.1924H215.489V28.5H216.528C217.682 28.5002 217.856 29.6544 218.433 32.7119C219.298 37.2119 221.492 39.6924 224.839 39.6924C228.994 39.6922 231.995 35.6537 231.995 30.8076C231.995 19.8464 216.066 21.923 216.066 10.5576C216.066 3.57715 220.452 0.000262236 224.665 0ZM17.1377 31.5H17.2529L25.7949 0.807617H33.7588V2.19238C33.7586 3.4037 31.5656 2.88468 31.5654 4.73047V37.2695C31.5654 39.1155 33.7583 38.5966 33.7588 39.8076V41.1924H24.7559V39.8076C24.7563 38.5966 26.9492 39.1155 26.9492 37.2695V6H26.833L16.9072 41.5391H15.5215L5.71094 6H5.5957V37.2695C5.5957 39.1155 7.7876 38.5966 7.78809 39.8076V41.1924H0.631836V39.8076C0.632325 38.5966 2.8252 39.1155 2.8252 37.2695V4.73047C2.82498 2.88468 0.632001 3.4037 0.631836 2.19238V0.807617H8.48047L17.1377 31.5ZM208.641 29.4229H208.756V4.73047C208.756 2.88468 206.564 3.4037 206.563 2.19238V0.807617H213.72V2.19238C213.72 3.4037 211.527 2.88468 211.526 4.73047V41.5391H209.853L191.789 4.03809H191.673V37.2695C191.673 39.1155 193.866 38.5966 193.866 39.8076V41.1924H186.71V39.8076C186.71 38.5966 188.903 39.1155 188.903 37.2695V4.73047C188.903 2.88468 186.71 3.4037 186.71 2.19238V0.807617H194.616L208.641 29.4229ZM286.553 29.4229H286.668V4.73047C286.668 2.88468 284.475 3.4037 284.475 2.19238V0.807617H291.632V2.19238C291.632 3.4037 289.439 2.88468 289.438 4.73047V41.5391H287.765L269.7 4.03809H269.585V37.2695C269.585 39.1155 271.778 38.5966 271.778 39.8076V41.1924H264.622V39.8076C264.623 38.5966 266.815 39.1155 266.815 37.2695V4.73047C266.815 2.88468 264.622 3.4037 264.622 2.19238V0.807617H272.528L286.553 29.4229ZM49.168 0C49.5141 0.000100148 49.8025 0.230883 49.9756 0.922852L60.4219 36.5771C61.3453 39.6926 63.4229 38.4817 63.4229 39.8086V41.1924H53.8428V39.8086C53.8428 38.5395 56.1509 39.058 56.1514 37.6162C56.1514 36.9816 55.8621 35.9425 55.4004 34.3848L53.7266 28.8467H42.877L41.1455 35.0771C40.9724 35.7695 40.7422 36.5773 40.7422 37.2119C40.7422 39.1735 43.5693 38.3663 43.5693 39.8086V41.1924H35.374V39.8086C35.374 38.3663 37.2788 39.6926 38.1445 36.5195L46.3975 6.69238C46.5706 6.05776 46.6865 5.65385 46.6865 5.25C46.6865 4.38457 45.7627 2.24977 45.7627 1.67285C45.7629 1.26918 46.167 1.09627 47.4941 0.577148C48.4753 0.1733 48.9371 0 49.168 0ZM84.6162 0.0576172V12.4619H83.3467C82.1924 12.4619 82.3074 10.8459 81.8457 6.98047C81.5571 4.6155 80.461 3.34589 78.3838 3.3457H75.0361V37.2695C75.0361 39.1157 77.2295 38.597 77.2295 39.8086V41.1924H68.2256V39.8086C68.2256 38.597 70.4189 39.1157 70.4189 37.2695V3.3457H67.0713C64.994 3.34586 63.898 4.61548 63.6094 6.98047C63.1477 10.8459 63.2626 12.4619 62.1084 12.4619H60.8389V0.0576172L60.8965 0C61.589 0.519191 62.4546 0.807579 64.0703 0.807617H81.3848C83.0005 0.807571 83.8661 0.519194 84.5586 0L84.6162 0.0576172ZM110.837 0.0576172V12.4619H109.567C108.413 12.4619 108.529 10.8458 108.067 6.98047C107.779 4.61538 106.682 3.34583 104.604 3.3457H101.257V37.2695C101.257 39.1157 103.45 38.597 103.45 39.8086V41.1924H94.4473V39.8086C94.4473 38.597 96.6396 39.1157 96.6396 37.2695V3.3457H93.293C91.2154 3.3457 90.1187 4.61532 89.8301 6.98047C89.3684 10.8459 89.4834 12.4619 88.3291 12.4619H87.0596V0.0576172L87.1172 0C87.8097 0.519187 88.6754 0.807562 90.291 0.807617H107.605C109.221 0.807588 110.087 0.519176 110.779 0L110.837 0.0576172ZM138.231 2.19238C138.231 3.4037 136.038 2.88468 136.038 4.73047V18.4619H148.966V4.73047C148.966 2.88468 146.774 3.4037 146.773 2.19238V0.807617H155.776V2.19238C155.776 3.4037 153.583 2.88468 153.583 4.73047V37.2695C153.583 39.1155 155.776 38.5966 155.776 39.8076V41.1924H146.773V39.8076C146.774 38.5966 148.966 39.1155 148.966 37.2695V21H136.038V37.2695C136.038 39.1155 138.231 38.5966 138.231 39.8076V41.1924H129.229V39.8076C129.229 38.5966 131.422 39.1155 131.422 37.2695V4.73047C131.422 2.88468 129.229 3.4037 129.229 2.19238V0.807617H138.231V2.19238ZM171.281 0C171.628 0 171.917 0.230635 172.09 0.922852L182.535 36.5771C183.459 39.6926 185.536 38.4817 185.536 39.8086V41.1924H175.956V39.8086C175.956 38.5395 178.264 39.058 178.265 37.6162C178.265 36.9816 177.976 35.9425 177.515 34.3848L175.841 28.8467H164.991L163.26 35.0771C163.087 35.7695 162.855 36.5773 162.855 37.2119C162.855 39.1735 165.684 38.3663 165.684 39.8086V41.1924H157.488V39.8086C157.488 38.3663 159.393 39.6926 160.259 36.5195L168.512 6.69238C168.685 6.05782 168.8 5.65383 168.8 5.25C168.8 4.38457 167.876 2.24977 167.876 1.67285C167.876 1.26922 168.281 1.09616 169.607 0.577148C170.588 0.173429 171.05 0.000110391 171.281 0ZM260.697 12.5771H259.774C258.447 12.5771 258.331 11.3077 257.927 9C257.176 4.61548 256.08 3.3457 251.925 3.3457H245.115V18.8076H251.117C254.522 18.8076 253.137 15.3472 254.926 15.3467H256.08V25.3848H254.926C253.137 25.3842 254.522 21.3467 251.117 21.3467H245.115V38.6543H253.656C257.812 38.6543 258.908 37.3847 259.658 33C260.062 30.6925 260.179 29.4238 261.506 29.4238H262.429V41.1924H238.305V39.8086C238.305 38.597 240.498 39.1157 240.498 37.2695V4.73047C240.498 2.88474 238.305 3.40379 238.305 2.19238V0.807617H256.657C258.042 0.807617 259.485 0.576878 260.697 0V12.5771ZM43.5693 26.3076H53.0342L48.1865 9.34668H48.0713L43.5693 26.3076ZM165.684 26.3076H175.148L170.301 9.34668H170.185L165.684 26.3076Z" fill="#0F110E" style="fill:#0F110E;fill:color(display-p3 0.0588 0.0667 0.0549);fill-opacity:1;"/>
</svg>
