<svg width="163" height="30" viewBox="0 0 163 30" fill="none" xmlns="http://www.w3.org/2000/svg">
<path d="M161.511 21.3556V28.9996H145.248V27.6346H145.599C146.249 27.6346 146.782 27.5436 147.198 27.3616C147.64 27.1796 147.861 26.8026 147.861 26.2306V4.07857C147.861 3.50657 147.64 3.12957 147.198 2.94757C146.782 2.76557 146.249 2.67457 145.599 2.67457H145.248V1.30957H160.965V8.09557H159.366L159.093 5.44357C159.041 4.74157 158.885 4.20857 158.625 3.84457C158.391 3.45457 158.001 3.20757 157.455 3.10357C156.935 2.97357 156.233 2.90857 155.349 2.90857H150.825V27.4006H155.856C156.532 27.4006 157.104 27.3746 157.572 27.3226C158.04 27.2446 158.417 27.1146 158.703 26.9326C158.989 26.7506 159.197 26.4906 159.327 26.1526C159.483 25.7886 159.587 25.3466 159.639 24.8266L159.912 21.3556H161.511ZM150.045 14.1016C150.955 14.0756 151.852 14.0496 152.736 14.0236C153.62 13.9976 154.491 13.9586 155.349 13.9066C156.233 13.8546 157.104 13.8156 157.962 13.7896V15.8566C157.104 15.8046 156.233 15.7656 155.349 15.7396C154.491 15.6876 153.62 15.6486 152.736 15.6226C151.852 15.5706 150.955 15.5446 150.045 15.5446V14.1016Z" fill="#F3DAC3" style="fill:#F3DAC3;fill:color(display-p3 0.9529 0.8549 0.7647);fill-opacity:1;"/>
<path d="M135.31 1.30957C136.584 1.30957 137.702 1.46557 138.664 1.77757C139.626 2.08957 140.432 2.54457 141.082 3.14257C141.758 3.71457 142.265 4.42957 142.603 5.28757C142.941 6.11957 143.11 7.06857 143.11 8.13457C143.11 9.46057 142.811 10.6046 142.213 11.5666C141.641 12.5286 140.783 13.2956 139.639 13.8676C138.521 14.4136 137.13 14.7256 135.466 14.8036L137.494 13.7896V15.1156L135.7 14.1406C137.494 14.1666 139.015 14.4786 140.263 15.0766C141.511 15.6746 142.46 16.5066 143.11 17.5726C143.76 18.6386 144.085 19.9256 144.085 21.4336C144.085 22.6296 143.903 23.6956 143.539 24.6316C143.175 25.5676 142.629 26.3606 141.901 27.0106C141.199 27.6606 140.315 28.1546 139.249 28.4926C138.209 28.8306 137 28.9996 135.622 28.9996H126.223V27.6346H126.535C127.237 27.6346 127.796 27.5436 128.212 27.3616C128.628 27.1536 128.836 26.7766 128.836 26.2306V4.07857C128.836 3.53257 128.628 3.16857 128.212 2.98657C127.796 2.77857 127.237 2.67457 126.535 2.67457H126.223V1.30957H135.31ZM131.176 13.7896H134.998C136.194 13.7896 137.169 13.5816 137.923 13.1656C138.677 12.7236 139.236 12.0866 139.6 11.2546C139.964 10.3966 140.146 9.38257 140.146 8.21257C140.146 7.04257 139.964 6.06757 139.6 5.28757C139.262 4.48157 138.716 3.88357 137.962 3.49357C137.234 3.07757 136.285 2.86957 135.115 2.86957H131.8V27.4396H135.427C136.727 27.4396 137.78 27.2186 138.586 26.7766C139.418 26.3086 140.029 25.6196 140.419 24.7096C140.809 23.7996 141.004 22.6946 141.004 21.3946C141.004 20.0686 140.796 18.9636 140.38 18.0796C139.964 17.1696 139.327 16.4806 138.469 16.0126C137.637 15.5446 136.558 15.3106 135.232 15.3106H131.176V13.7896Z" fill="#F3DAC3" style="fill:#F3DAC3;fill:color(display-p3 0.9529 0.8549 0.7647);fill-opacity:1;"/>
<path d="M119.334 26.2306V4.07857C119.334 3.50657 119.113 3.12957 118.671 2.94757C118.229 2.76557 117.683 2.67457 117.033 2.67457H116.682V1.30957H124.911V2.67457H124.56C123.936 2.67457 123.403 2.76557 122.961 2.94757C122.519 3.12957 122.298 3.50657 122.298 4.07857V26.2306C122.298 26.8026 122.519 27.1796 122.961 27.3616C123.403 27.5436 123.936 27.6346 124.56 27.6346H124.911V28.9996H116.682V27.6346H117.033C117.683 27.6346 118.229 27.5436 118.671 27.3616C119.113 27.1796 119.334 26.8026 119.334 26.2306Z" fill="#F3DAC3" style="fill:#F3DAC3;fill:color(display-p3 0.9529 0.8549 0.7647);fill-opacity:1;"/>
<path d="M106.37 16.2076L109.217 15.6226L113.468 26.3476C113.624 26.6856 113.793 26.9586 113.975 27.1666C114.157 27.3486 114.378 27.4786 114.638 27.5566C114.898 27.6086 115.21 27.6346 115.574 27.6346H115.847V28.9996H111.362L106.37 16.2076ZM102.587 27.2446C102.587 27.3226 102.652 27.3876 102.782 27.4396C102.938 27.4656 103.12 27.5046 103.328 27.5566C103.562 27.5826 103.809 27.6086 104.069 27.6346C104.355 27.6346 104.628 27.6346 104.888 27.6346H105.239V28.9996H97.0095V27.6346H97.3215C97.9975 27.6346 98.5435 27.5436 98.9595 27.3616C99.4015 27.1796 99.6225 26.8026 99.6225 26.2306V4.07857C99.6225 3.50657 99.4015 3.12957 98.9595 2.94757C98.5435 2.76557 97.9975 2.67457 97.3215 2.67457H97.0095V1.30957H106.097C107.813 1.30957 109.269 1.62157 110.465 2.24557C111.661 2.84357 112.571 3.72757 113.195 4.89757C113.819 6.04157 114.131 7.41957 114.131 9.03157C114.131 10.3576 113.897 11.5146 113.429 12.5026C112.987 13.4906 112.35 14.3096 111.518 14.9596C110.686 15.5836 109.685 16.0516 108.515 16.3636C108.255 16.4416 107.982 16.5066 107.696 16.5586C107.41 16.6106 107.124 16.6496 106.838 16.6756C106.552 16.7016 106.24 16.7146 105.902 16.7146H101.612V15.1936H105.863C107.059 15.1936 108.034 14.9466 108.788 14.4526C109.568 13.9326 110.14 13.2176 110.504 12.3076C110.894 11.3716 111.089 10.2796 111.089 9.03157C111.089 7.67957 110.894 6.54857 110.504 5.63857C110.114 4.72857 109.529 4.05257 108.749 3.61057C107.995 3.14257 107.046 2.90857 105.902 2.90857H102.587V27.2446Z" fill="#F3DAC3" style="fill:#F3DAC3;fill:color(display-p3 0.9529 0.8549 0.7647);fill-opacity:1;"/>
<path d="M87.5498 2.59692C86.4838 2.59692 85.5478 2.85692 84.7418 3.37692C83.9618 3.87092 83.3118 4.63792 82.7918 5.67792C82.2718 6.69192 81.8818 7.99192 81.6218 9.57792C81.3618 11.1639 81.2318 13.0229 81.2318 15.1549C81.2318 17.3389 81.3618 19.2239 81.6218 20.8099C81.9078 22.3959 82.3108 23.7089 82.8308 24.7489C83.3768 25.7629 84.0528 26.5169 84.8588 27.0109C85.6648 27.5049 86.6138 27.7519 87.7058 27.7519C88.7718 27.7519 89.6948 27.5309 90.4748 27.0889C91.2548 26.6469 91.9308 25.9319 92.5028 24.9439C93.1008 23.9299 93.6078 22.5909 94.0238 20.9269L95.6228 21.4339C95.2588 23.2019 94.7258 24.6839 94.0238 25.8799C93.3478 27.0499 92.4898 27.9339 91.4498 28.5319C90.4098 29.1039 89.1488 29.3899 87.6668 29.3899C86.1588 29.3899 84.8068 29.0909 83.6108 28.4929C82.4148 27.8949 81.4008 26.9979 80.5688 25.8019C79.7628 24.6059 79.1388 23.1109 78.6968 21.3169C78.2808 19.5229 78.0728 17.4559 78.0728 15.1159C78.0728 12.8279 78.2938 10.7999 78.7358 9.03192C79.1778 7.26392 79.8018 5.78192 80.6078 4.58592C81.4138 3.36392 82.3888 2.45392 83.5328 1.85592C84.7028 1.23192 86.0158 0.919922 87.4718 0.919922C88.6938 0.919922 89.7208 1.15392 90.5528 1.62192C91.4108 2.06392 92.1128 2.72692 92.6588 3.61092C93.2048 4.46892 93.6338 5.50892 93.9458 6.73092L93.0098 6.45792L93.4778 1.30992H94.9988V9.07092H93.2828C92.9448 7.64092 92.5158 6.44492 91.9958 5.48292C91.4758 4.52092 90.8518 3.80592 90.1238 3.33792C89.3958 2.84392 88.5378 2.59692 87.5498 2.59692Z" fill="#F3DAC3" style="fill:#F3DAC3;fill:color(display-p3 0.9529 0.8549 0.7647);fill-opacity:1;"/>
<path d="M69.0328 27.7519C70.0468 27.7519 70.9178 27.5439 71.6458 27.1279C72.3738 26.7119 72.9328 26.1139 73.3228 25.3339C73.7388 24.5279 73.9468 23.5529 73.9468 22.4089C73.9468 21.4729 73.8038 20.6799 73.5178 20.0299C73.2318 19.3539 72.8158 18.7819 72.2698 18.3139C71.7498 17.8199 71.1128 17.3909 70.3588 17.0269C69.6308 16.6629 68.8248 16.3119 67.9408 15.9739C66.9788 15.6099 66.0688 15.2069 65.2108 14.7649C64.3788 14.3229 63.6378 13.8029 62.9878 13.2049C62.3378 12.6069 61.8308 11.8789 61.4668 11.0209C61.1028 10.1369 60.9208 9.09692 60.9208 7.90092C60.9208 6.39292 61.2328 5.11892 61.8568 4.07892C62.4808 3.03892 63.2998 2.25892 64.3138 1.73892C65.3278 1.19292 66.4458 0.919922 67.6678 0.919922C68.7078 0.919922 69.6178 1.10192 70.3978 1.46592C71.2038 1.80392 71.9188 2.37592 72.5428 3.18192C73.1668 3.98792 73.6868 5.07992 74.1028 6.45792L73.0498 6.02892L73.5958 1.30992H75.0388V8.09592H73.4398C73.0758 6.82192 72.6208 5.78192 72.0748 4.97592C71.5288 4.14392 70.8918 3.53292 70.1638 3.14292C69.4618 2.72692 68.6558 2.51892 67.7458 2.51892C66.8618 2.51892 66.0818 2.71392 65.4058 3.10392C64.7298 3.46792 64.2098 4.00092 63.8458 4.70292C63.4818 5.37892 63.2998 6.21092 63.2998 7.19892C63.2998 8.10892 63.4428 8.87592 63.7288 9.49992C64.0148 10.1239 64.4178 10.6569 64.9378 11.0989C65.4838 11.5409 66.1208 11.9309 66.8488 12.2689C67.5768 12.6069 68.3958 12.9449 69.3058 13.2829C70.2938 13.6209 71.2168 14.0239 72.0748 14.4919C72.9328 14.9599 73.6868 15.5189 74.3368 16.1689C74.9868 16.7929 75.4808 17.5599 75.8188 18.4699C76.1828 19.3539 76.3648 20.4069 76.3648 21.6289C76.3648 23.3189 76.0398 24.7489 75.3898 25.9189C74.7658 27.0629 73.8948 27.9339 72.7768 28.5319C71.6848 29.1039 70.4498 29.3899 69.0718 29.3899C67.8498 29.3899 66.7058 29.1689 65.6398 28.7269C64.5998 28.2849 63.6898 27.5699 62.9098 26.5819C62.1558 25.5939 61.5708 24.2809 61.1548 22.6429L62.3248 23.4229L61.8178 28.9999H60.2578V20.9659H61.9738C62.3118 22.4999 62.8058 23.7739 63.4558 24.7879C64.1318 25.7759 64.9378 26.5169 65.8738 27.0109C66.8358 27.5049 67.8888 27.7519 69.0328 27.7519Z" fill="#F3DAC3" style="fill:#F3DAC3;fill:color(display-p3 0.9529 0.8549 0.7647);fill-opacity:1;"/>
<path d="M49.8602 1.30957C51.1342 1.30957 52.2522 1.46557 53.2142 1.77757C54.1762 2.08957 54.9822 2.54457 55.6322 3.14257C56.3082 3.71457 56.8152 4.42957 57.1532 5.28757C57.4912 6.11957 57.6602 7.06857 57.6602 8.13457C57.6602 9.46057 57.3612 10.6046 56.7632 11.5666C56.1912 12.5286 55.3332 13.2956 54.1892 13.8676C53.0712 14.4136 51.6802 14.7256 50.0162 14.8036L52.0442 13.7896V15.1156L50.2502 14.1406C52.0442 14.1666 53.5652 14.4786 54.8132 15.0766C56.0612 15.6746 57.0102 16.5066 57.6602 17.5726C58.3102 18.6386 58.6352 19.9256 58.6352 21.4336C58.6352 22.6296 58.4532 23.6956 58.0892 24.6316C57.7252 25.5676 57.1792 26.3606 56.4512 27.0106C55.7492 27.6606 54.8652 28.1546 53.7992 28.4926C52.7592 28.8306 51.5502 28.9996 50.1722 28.9996H40.7732V27.6346H41.0852C41.7872 27.6346 42.3462 27.5436 42.7622 27.3616C43.1782 27.1536 43.3862 26.7766 43.3862 26.2306V4.07857C43.3862 3.53257 43.1782 3.16857 42.7622 2.98657C42.3462 2.77857 41.7872 2.67457 41.0852 2.67457H40.7732V1.30957H49.8602ZM45.7262 13.7896H49.5482C50.7442 13.7896 51.7192 13.5816 52.4732 13.1656C53.2272 12.7236 53.7862 12.0866 54.1502 11.2546C54.5142 10.3966 54.6962 9.38257 54.6962 8.21257C54.6962 7.04257 54.5142 6.06757 54.1502 5.28757C53.8122 4.48157 53.2662 3.88357 52.5122 3.49357C51.7842 3.07757 50.8352 2.86957 49.6652 2.86957H46.3502V27.4396H49.9772C51.2772 27.4396 52.3302 27.2186 53.1362 26.7766C53.9682 26.3086 54.5792 25.6196 54.9692 24.7096C55.3592 23.7996 55.5542 22.6946 55.5542 21.3946C55.5542 20.0686 55.3462 18.9636 54.9302 18.0796C54.5142 17.1696 53.8772 16.4806 53.0192 16.0126C52.1872 15.5446 51.1082 15.3106 49.7822 15.3106H45.7262V13.7896Z" fill="#F3DAC3" style="fill:#F3DAC3;fill:color(display-p3 0.9529 0.8549 0.7647);fill-opacity:1;"/>
<path d="M23.4762 20.0296C23.4762 21.4076 23.6062 22.5776 23.8662 23.5396C24.1262 24.5016 24.5032 25.2686 24.9972 25.8406C25.4912 26.4126 26.1022 26.8286 26.8302 27.0886C27.5582 27.3486 28.3772 27.4786 29.2872 27.4786C30.1972 27.4786 31.0162 27.3486 31.7442 27.0886C32.4722 26.8286 33.0832 26.4126 33.5772 25.8406C34.0972 25.2426 34.4872 24.4626 34.7472 23.5006C35.0332 22.5386 35.1762 21.3686 35.1762 19.9906V3.57157C35.1762 3.41557 35.0982 3.28557 34.9422 3.18157C34.7862 3.07757 34.5782 2.98657 34.3182 2.90857C34.0842 2.83057 33.8112 2.77857 33.4992 2.75257C33.1872 2.70057 32.9012 2.67457 32.6412 2.67457H32.3292V1.30957H39.5442V2.67457H39.1542C38.7382 2.67457 38.3482 2.73957 37.9842 2.86957C37.6462 2.97357 37.3732 3.16857 37.1652 3.45457C36.9832 3.71457 36.8922 4.07857 36.8922 4.54657V19.9516C36.8922 21.6416 36.6972 23.0846 36.3072 24.2806C35.9172 25.4766 35.3582 26.4516 34.6302 27.2056C33.9282 27.9336 33.0832 28.4796 32.0952 28.8436C31.1332 29.2076 30.0542 29.3896 28.8582 29.3896C27.6102 29.3896 26.4792 29.2206 25.4652 28.8826C24.4512 28.5186 23.5672 27.9596 22.8132 27.2056C22.0852 26.4516 21.5132 25.4766 21.0972 24.2806C20.7072 23.0846 20.5122 21.6546 20.5122 19.9906V4.07857C20.5122 3.50657 20.3042 3.12957 19.8882 2.94757C19.4722 2.76557 18.9262 2.67457 18.2502 2.67457H17.9382V1.30957H26.1672V2.67457H25.9332C25.6732 2.67457 25.3872 2.68757 25.0752 2.71357C24.7892 2.71357 24.5292 2.73957 24.2952 2.79157C24.0612 2.81757 23.8662 2.85657 23.7102 2.90857C23.5542 2.93457 23.4762 2.98657 23.4762 3.06457V20.0296Z" fill="#F3DAC3" style="fill:#F3DAC3;fill:color(display-p3 0.9529 0.8549 0.7647);fill-opacity:1;"/>
<path d="M9.44492 27.7519C10.4589 27.7519 11.3299 27.5439 12.0579 27.1279C12.7859 26.7119 13.3449 26.1139 13.7349 25.3339C14.1509 24.5279 14.3589 23.5529 14.3589 22.4089C14.3589 21.4729 14.2159 20.6799 13.9299 20.0299C13.6439 19.3539 13.2279 18.7819 12.6819 18.3139C12.1619 17.8199 11.5249 17.3909 10.7709 17.0269C10.0429 16.6629 9.23692 16.3119 8.35292 15.9739C7.39092 15.6099 6.48092 15.2069 5.62292 14.7649C4.79092 14.3229 4.04992 13.8029 3.39992 13.2049C2.74992 12.6069 2.24292 11.8789 1.87892 11.0209C1.51492 10.1369 1.33292 9.09692 1.33292 7.90092C1.33292 6.39292 1.64492 5.11892 2.26892 4.07892C2.89292 3.03892 3.71192 2.25892 4.72592 1.73892C5.73992 1.19292 6.85792 0.919922 8.07992 0.919922C9.11992 0.919922 10.0299 1.10192 10.8099 1.46592C11.6159 1.80392 12.3309 2.37592 12.9549 3.18192C13.5789 3.98792 14.0989 5.07992 14.5149 6.45792L13.4619 6.02892L14.0079 1.30992H15.4509V8.09592H13.8519C13.4879 6.82192 13.0329 5.78192 12.4869 4.97592C11.9409 4.14392 11.3039 3.53292 10.5759 3.14292C9.87392 2.72692 9.06792 2.51892 8.15792 2.51892C7.27392 2.51892 6.49392 2.71392 5.81792 3.10392C5.14192 3.46792 4.62192 4.00092 4.25792 4.70292C3.89392 5.37892 3.71192 6.21092 3.71192 7.19892C3.71192 8.10892 3.85492 8.87592 4.14092 9.49992C4.42692 10.1239 4.82992 10.6569 5.34992 11.0989C5.89592 11.5409 6.53292 11.9309 7.26092 12.2689C7.98892 12.6069 8.80792 12.9449 9.71792 13.2829C10.7059 13.6209 11.6289 14.0239 12.4869 14.4919C13.3449 14.9599 14.0989 15.5189 14.7489 16.1689C15.3989 16.7929 15.8929 17.5599 16.2309 18.4699C16.5949 19.3539 16.7769 20.4069 16.7769 21.6289C16.7769 23.3189 16.4519 24.7489 15.8019 25.9189C15.1779 27.0629 14.3069 27.9339 13.1889 28.5319C12.0969 29.1039 10.8619 29.3899 9.48392 29.3899C8.26192 29.3899 7.11792 29.1689 6.05192 28.7269C5.01192 28.2849 4.10192 27.5699 3.32192 26.5819C2.56792 25.5939 1.98292 24.2809 1.56692 22.6429L2.73692 23.4229L2.22992 28.9999H0.669922V20.9659H2.38592C2.72392 22.4999 3.21792 23.7739 3.86792 24.7879C4.54392 25.7759 5.34992 26.5169 6.28592 27.0109C7.24792 27.5049 8.30092 27.7519 9.44492 27.7519Z" fill="#F3DAC3" style="fill:#F3DAC3;fill:color(display-p3 0.9529 0.8549 0.7647);fill-opacity:1;"/>
</svg>
