<svg width="84" height="30" viewBox="0 0 84 30" fill="none" xmlns="http://www.w3.org/2000/svg">
<g clip-path="url(#clip0_196_132)">
<path d="M8.502 26.231V2.909H6.63C5.746 2.909 5.031 2.974 4.485 3.104C3.939 3.234 3.536 3.481 3.276 3.845C3.016 4.209 2.847 4.742 2.769 5.444L2.496 8.213H0.897V1.31H19.032V8.213H17.472L17.199 5.444C17.147 4.742 16.978 4.209 16.692 3.845C16.432 3.481 16.029 3.234 15.483 3.104C14.937 2.974 14.209 2.909 13.299 2.909H11.466V26.231C11.466 26.803 11.687 27.18 12.129 27.362C12.571 27.544 13.117 27.635 13.767 27.635H14.235V29H5.733V27.635H6.201C6.877 27.635 7.423 27.544 7.839 27.362C8.281 27.18 8.502 26.803 8.502 26.231ZM30.1814 29.39C28.6734 29.39 27.3084 29.078 26.0864 28.454C24.8904 27.83 23.8764 26.92 23.0444 25.724C22.2124 24.502 21.5754 23.007 21.1334 21.239C20.6914 19.471 20.4704 17.443 20.4704 15.155C20.4704 12.841 20.6914 10.8 21.1334 9.032C21.5754 7.264 22.2124 5.782 23.0444 4.586C23.8764 3.364 24.8904 2.454 26.0864 1.856C27.2824 1.232 28.6474 0.919999 30.1814 0.919999C31.7154 0.919999 33.0674 1.232 34.2374 1.856C35.4334 2.454 36.4474 3.364 37.2794 4.586C38.1114 5.808 38.7484 7.303 39.1904 9.071C39.6324 10.813 39.8534 12.841 39.8534 15.155C39.8534 17.443 39.6324 19.471 39.1904 21.239C38.7744 23.007 38.1374 24.502 37.2794 25.724C36.4474 26.92 35.4334 27.83 34.2374 28.454C33.0414 29.078 31.6894 29.39 30.1814 29.39ZM30.1814 27.752C31.2734 27.752 32.2224 27.505 33.0284 27.011C33.8604 26.491 34.5364 25.711 35.0564 24.671C35.6024 23.631 36.0054 22.318 36.2654 20.732C36.5514 19.146 36.6944 17.287 36.6944 15.155C36.6944 12.997 36.5514 11.138 36.2654 9.578C36.0054 7.992 35.6024 6.679 35.0564 5.639C34.5364 4.599 33.8604 3.832 33.0284 3.338C32.2224 2.818 31.2734 2.558 30.1814 2.558C29.0894 2.558 28.1274 2.818 27.2954 3.338C26.4894 3.832 25.8134 4.599 25.2674 5.639C24.7214 6.679 24.3054 7.992 24.0194 9.578C23.7594 11.138 23.6294 12.997 23.6294 15.155C23.6294 17.287 23.7724 19.146 24.0584 20.732C24.3444 22.318 24.7604 23.631 25.3064 24.671C25.8524 25.711 26.5284 26.491 27.3344 27.011C28.1404 27.505 29.0894 27.752 30.1814 27.752ZM46.9618 20.03C46.9618 21.408 47.0918 22.578 47.3518 23.54C47.6118 24.502 47.9888 25.269 48.4828 25.841C48.9768 26.413 49.5878 26.829 50.3158 27.089C51.0438 27.349 51.8628 27.479 52.7728 27.479C53.6828 27.479 54.5018 27.349 55.2298 27.089C55.9578 26.829 56.5688 26.413 57.0628 25.841C57.5828 25.243 57.9728 24.463 58.2328 23.501C58.5188 22.539 58.6618 21.369 58.6618 19.991V3.572C58.6618 3.416 58.5838 3.286 58.4278 3.182C58.2718 3.078 58.0638 2.987 57.8038 2.909C57.5698 2.831 57.2968 2.779 56.9848 2.753C56.6728 2.701 56.3868 2.675 56.1268 2.675H55.8148V1.31H63.0298V2.675H62.6398C62.2238 2.675 61.8338 2.74 61.4698 2.87C61.1318 2.974 60.8588 3.169 60.6508 3.455C60.4688 3.715 60.3778 4.079 60.3778 4.547V19.952C60.3778 21.642 60.1828 23.085 59.7928 24.281C59.4028 25.477 58.8438 26.452 58.1158 27.206C57.4138 27.934 56.5688 28.48 55.5808 28.844C54.6188 29.208 53.5398 29.39 52.3438 29.39C51.0958 29.39 49.9648 29.221 48.9508 28.883C47.9368 28.519 47.0528 27.96 46.2988 27.206C45.5708 26.452 44.9988 25.477 44.5828 24.281C44.1928 23.085 43.9978 21.655 43.9978 19.991V4.079C43.9978 3.507 43.7898 3.13 43.3738 2.948C42.9578 2.766 42.4118 2.675 41.7358 2.675H41.4238V1.31H49.6528V2.675H49.4188C49.1588 2.675 48.8728 2.688 48.5608 2.714C48.2748 2.714 48.0148 2.74 47.7808 2.792C47.5468 2.818 47.3518 2.857 47.1958 2.909C47.0398 2.935 46.9618 2.987 46.9618 3.065V20.03ZM73.6189 16.208L76.4659 15.623L80.7169 26.348C80.8729 26.686 81.0419 26.959 81.2239 27.167C81.4059 27.349 81.6269 27.479 81.8869 27.557C82.1469 27.609 82.4589 27.635 82.8229 27.635H83.0959V29H78.6109L73.6189 16.208ZM69.8359 27.245C69.8359 27.323 69.9009 27.388 70.0309 27.44C70.1869 27.466 70.3689 27.505 70.5769 27.557C70.8109 27.583 71.0579 27.609 71.3179 27.635C71.6039 27.635 71.8769 27.635 72.1369 27.635H72.4879V29H64.2589V27.635H64.5709C65.2469 27.635 65.7929 27.544 66.2089 27.362C66.6509 27.18 66.8719 26.803 66.8719 26.231V4.079C66.8719 3.507 66.6509 3.13 66.2089 2.948C65.7929 2.766 65.2469 2.675 64.5709 2.675H64.2589V1.31H73.3459C75.0619 1.31 76.5179 1.622 77.7139 2.246C78.9099 2.844 79.8199 3.728 80.4439 4.898C81.0679 6.042 81.3799 7.42 81.3799 9.032C81.3799 10.358 81.1459 11.515 80.6779 12.503C80.2359 13.491 79.5989 14.31 78.7669 14.96C77.9349 15.584 76.9339 16.052 75.7639 16.364C75.5039 16.442 75.2309 16.507 74.9449 16.559C74.6589 16.611 74.3729 16.65 74.0869 16.676C73.8009 16.702 73.4889 16.715 73.1509 16.715H68.8609V15.194H73.1119C74.3079 15.194 75.2829 14.947 76.0369 14.453C76.8169 13.933 77.3889 13.218 77.7529 12.308C78.1429 11.372 78.3379 10.28 78.3379 9.032C78.3379 7.68 78.1429 6.549 77.7529 5.639C77.3629 4.729 76.7779 4.053 75.9979 3.611C75.2439 3.143 74.2949 2.909 73.1509 2.909H69.8359V27.245Z" fill="#F3DAC3" style="fill:#F3DAC3;fill:color(display-p3 0.9529 0.8549 0.7647);fill-opacity:1;"/>
</g>
<defs>
<clipPath id="clip0_196_132">
<rect width="84" height="30" fill="white" style="fill:white;fill-opacity:1;"/>
</clipPath>
</defs>
</svg>
