<svg width="81" height="30" viewBox="0 0 81 30" fill="none" xmlns="http://www.w3.org/2000/svg">
<g clip-path="url(#clip0_196_129)">
<path d="M68.7645 27.1666C68.7645 27.2706 68.8295 27.3486 68.9595 27.4006C69.1155 27.4266 69.3105 27.4656 69.5445 27.5176C69.7785 27.5696 70.0255 27.6086 70.2855 27.6346C70.5715 27.6346 70.8575 27.6346 71.1435 27.6346H71.8455V28.9996H63.1875V27.6346H63.5385C64.1885 27.6346 64.7215 27.5436 65.1375 27.3616C65.5795 27.1796 65.8005 26.8026 65.8005 26.2306V4.07857C65.8005 3.50657 65.5795 3.12957 65.1375 2.94757C64.7215 2.76557 64.1755 2.67457 63.4995 2.67457H63.1875V1.30957H72.3135C74.9655 1.30957 76.9935 1.98557 78.3975 3.33757C79.8015 4.68957 80.5035 6.65257 80.5035 9.22657C80.5035 10.9426 80.1655 12.4116 79.4895 13.6336C78.8395 14.8556 77.8905 15.8046 76.6425 16.4806C75.4205 17.1306 73.9255 17.4556 72.1575 17.4556H67.8675V15.8956H71.9625C73.2365 15.8956 74.2765 15.6486 75.0825 15.1546C75.8885 14.6346 76.4865 13.8806 76.8765 12.8926C77.2665 11.9046 77.4615 10.6826 77.4615 9.22657C77.4615 7.79657 77.2665 6.62657 76.8765 5.71657C76.4865 4.78057 75.9015 4.07857 75.1215 3.61057C74.3415 3.14257 73.3405 2.90857 72.1185 2.90857H68.7645V27.1666Z" fill="#F3DAC3" style="fill:#F3DAC3;fill:color(display-p3 0.9529 0.8549 0.7647);fill-opacity:1;"/>
<path d="M51.6387 29.3899C50.1307 29.3899 48.7657 29.0779 47.5437 28.4539C46.3477 27.8299 45.3337 26.9199 44.5017 25.7239C43.6697 24.5019 43.0327 23.0069 42.5907 21.2389C42.1487 19.4709 41.9277 17.4429 41.9277 15.1549C41.9277 12.8409 42.1487 10.7999 42.5907 9.03192C43.0327 7.26392 43.6697 5.78192 44.5017 4.58592C45.3337 3.36392 46.3477 2.45392 47.5437 1.85592C48.7397 1.23192 50.1047 0.919922 51.6387 0.919922C53.1727 0.919922 54.5247 1.23192 55.6947 1.85592C56.8907 2.45392 57.9047 3.36392 58.7367 4.58592C59.5687 5.80792 60.2057 7.30292 60.6477 9.07092C61.0897 10.8129 61.3107 12.8409 61.3107 15.1549C61.3107 17.4429 61.0897 19.4709 60.6477 21.2389C60.2317 23.0069 59.5947 24.5019 58.7367 25.7239C57.9047 26.9199 56.8907 27.8299 55.6947 28.4539C54.4987 29.0779 53.1467 29.3899 51.6387 29.3899ZM51.6387 27.7519C52.7307 27.7519 53.6797 27.5049 54.4857 27.0109C55.3177 26.4909 55.9937 25.7109 56.5137 24.6709C57.0597 23.6309 57.4627 22.3179 57.7227 20.7319C58.0087 19.1459 58.1517 17.2869 58.1517 15.1549C58.1517 12.9969 58.0087 11.1379 57.7227 9.57792C57.4627 7.99192 57.0597 6.67892 56.5137 5.63892C55.9937 4.59892 55.3177 3.83192 54.4857 3.33792C53.6797 2.81792 52.7307 2.55792 51.6387 2.55792C50.5467 2.55792 49.5847 2.81792 48.7527 3.33792C47.9467 3.83192 47.2707 4.59892 46.7247 5.63892C46.1787 6.67892 45.7627 7.99192 45.4767 9.57792C45.2167 11.1379 45.0867 12.9969 45.0867 15.1549C45.0867 17.2869 45.2297 19.1459 45.5157 20.7319C45.8017 22.3179 46.2177 23.6309 46.7637 24.6709C47.3097 25.7109 47.9857 26.4909 48.7917 27.0109C49.5977 27.5049 50.5467 27.7519 51.6387 27.7519Z" fill="#F3DAC3" style="fill:#F3DAC3;fill:color(display-p3 0.9529 0.8549 0.7647);fill-opacity:1;"/>
<path d="M22.6897 13.9456H35.6767V15.5446H22.6897V13.9456ZM18.2827 28.9996V27.6346H18.5947C19.2707 27.6346 19.8167 27.5436 20.2327 27.3616C20.6747 27.1796 20.8957 26.8026 20.8957 26.2306V4.07857C20.8957 3.50657 20.6747 3.12957 20.2327 2.94757C19.8167 2.76557 19.2707 2.67457 18.5947 2.67457H18.2827V1.30957H26.5117V2.67457H26.2777C26.0177 2.67457 25.7447 2.68757 25.4587 2.71357C25.1727 2.71357 24.9127 2.73957 24.6787 2.79157C24.4447 2.81757 24.2497 2.85657 24.0937 2.90857C23.9377 2.93457 23.8597 2.98657 23.8597 3.06457V27.2056C23.8597 27.3096 23.9377 27.3876 24.0937 27.4396C24.2497 27.4656 24.4447 27.5046 24.6787 27.5566C24.9127 27.5826 25.1727 27.6086 25.4587 27.6346C25.7447 27.6346 26.0177 27.6346 26.2777 27.6346H26.5117V28.9996H18.2827ZM31.8157 28.9996V27.6346H32.0887C32.3487 27.6346 32.6217 27.6346 32.9077 27.6346C33.1937 27.6086 33.4537 27.5826 33.6877 27.5566C33.9217 27.5046 34.1167 27.4656 34.2727 27.4396C34.4287 27.3876 34.5067 27.3226 34.5067 27.2446V3.06457C34.5067 2.98657 34.4287 2.93457 34.2727 2.90857C34.1167 2.85657 33.9217 2.81757 33.6877 2.79157C33.4537 2.73957 33.1937 2.71357 32.9077 2.71357C32.6217 2.68757 32.3487 2.67457 32.0887 2.67457H31.8157V1.30957H40.0837V2.67457H39.7717C39.1217 2.67457 38.5757 2.76557 38.1337 2.94757C37.6917 3.12957 37.4707 3.50657 37.4707 4.07857V26.2306C37.4707 26.8026 37.6917 27.1796 38.1337 27.3616C38.5757 27.5436 39.1217 27.6346 39.7717 27.6346H40.0837V28.9996H31.8157Z" fill="#F3DAC3" style="fill:#F3DAC3;fill:color(display-p3 0.9529 0.8549 0.7647);fill-opacity:1;"/>
<path d="M9.44492 27.7519C10.4589 27.7519 11.3299 27.5439 12.0579 27.1279C12.7859 26.7119 13.3449 26.1139 13.7349 25.3339C14.1509 24.5279 14.3589 23.5529 14.3589 22.4089C14.3589 21.4729 14.2159 20.6799 13.9299 20.0299C13.6439 19.3539 13.2279 18.7819 12.6819 18.3139C12.1619 17.8199 11.5249 17.3909 10.7709 17.0269C10.0429 16.6629 9.23692 16.3119 8.35292 15.9739C7.39092 15.6099 6.48092 15.2069 5.62292 14.7649C4.79092 14.3229 4.04992 13.8029 3.39992 13.2049C2.74992 12.6069 2.24292 11.8789 1.87892 11.0209C1.51492 10.1369 1.33292 9.09692 1.33292 7.90092C1.33292 6.39292 1.64492 5.11892 2.26892 4.07892C2.89292 3.03892 3.71192 2.25892 4.72592 1.73892C5.73992 1.19292 6.85792 0.919922 8.07992 0.919922C9.11992 0.919922 10.0299 1.10192 10.8099 1.46592C11.6159 1.80392 12.3309 2.37592 12.9549 3.18192C13.5789 3.98792 14.0989 5.07992 14.5149 6.45792L13.4619 6.02892L14.0079 1.30992H15.4509V8.09592H13.8519C13.4879 6.82192 13.0329 5.78192 12.4869 4.97592C11.9409 4.14392 11.3039 3.53292 10.5759 3.14292C9.87392 2.72692 9.06792 2.51892 8.15792 2.51892C7.27392 2.51892 6.49392 2.71392 5.81792 3.10392C5.14192 3.46792 4.62192 4.00092 4.25792 4.70292C3.89392 5.37892 3.71192 6.21092 3.71192 7.19892C3.71192 8.10892 3.85492 8.87592 4.14092 9.49992C4.42692 10.1239 4.82992 10.6569 5.34992 11.0989C5.89592 11.5409 6.53292 11.9309 7.26092 12.2689C7.98892 12.6069 8.80792 12.9449 9.71792 13.2829C10.7059 13.6209 11.6289 14.0239 12.4869 14.4919C13.3449 14.9599 14.0989 15.5189 14.7489 16.1689C15.3989 16.7929 15.8929 17.5599 16.2309 18.4699C16.5949 19.3539 16.7769 20.4069 16.7769 21.6289C16.7769 23.3189 16.4519 24.7489 15.8019 25.9189C15.1779 27.0629 14.3069 27.9339 13.1889 28.5319C12.0969 29.1039 10.8619 29.3899 9.48392 29.3899C8.26192 29.3899 7.11792 29.1689 6.05192 28.7269C5.01192 28.2849 4.10192 27.5699 3.32192 26.5819C2.56792 25.5939 1.98292 24.2809 1.56692 22.6429L2.73692 23.4229L2.22992 28.9999H0.669922V20.9659H2.38592C2.72392 22.4999 3.21792 23.7739 3.86792 24.7879C4.54392 25.7759 5.34992 26.5169 6.28592 27.0109C7.24792 27.5049 8.30092 27.7519 9.44492 27.7519Z" fill="#F3DAC3" style="fill:#F3DAC3;fill:color(display-p3 0.9529 0.8549 0.7647);fill-opacity:1;"/>
</g>
<defs>
<clipPath id="clip0_196_129">
<rect width="81" height="30" fill="white" style="fill:white;fill-opacity:1;"/>
</clipPath>
</defs>
</svg>
